# Alias OBJ Model File
# Exported from SketchUp, (c) 2000-2012 Trimble Navigation Limited
# File units = inches

mtllib LineSmall.mtl

g Mesh1 Group1 Model

usemtl FrontColor
v 0 130.392 6
vt 10.0382 108.601
vn -5.07904e-17 0.867044 0.498231
v -5.19615 126 9
vt 5.79555 102.494
vn -0.432517 0.501714 0.749141
v 0 126 10.3923
vt 11.175 102.494
vn -8.10206e-17 0.501714 0.865033
f 1/1/1 2/2/2 3/3/3

v -3 130.392 5.19615
vt 6.93237 108.601
vn -0.249116 0.867044 0.431481
f 2/2/2 1/1/1 4/4/4

v 0 132 1.77636e-15
vt 8.48528 52.6544
vn -9.45162e-17 0.984417 0.175849
vt 6.93237 46.64
vt 10.0382 46.64
f 5/5/5 4/6/4 1/7/1

vt -1.77636e-14 54.8453
v -5.19615 130.392 3
vt -1.55291 48.8308
vn -0.431481 0.867044 0.249116
vt 1.55291 48.8308
f 5/8/5 6/9/6 4/10/4

vt -8.48528 52.6544
v -6 130.392 1.77636e-15
vt -10.0382 46.64
vn -0.49385 0.85942 0.132327
vt -6.93237 46.64
f 5/11/5 7/12/7 6/13/6

v 6 130.392 1.77636e-15
vt -18 142.392
vn -7.36392e-33 -5.6949e-19 -1
vt -6 142.392
vt -12 144
f 8/14/8 7/15/8 5/16/8

v 10.3923 126 1.77636e-15
vt -22.3923 138
f 9/17/8 7/15/8 8/14/8

v -10.3923 126 1.77636e-15
vt -1.6077 138
f 9/17/8 10/18/8 7/15/8

v 12 120 -0
vt -24 132
f 11/19/8 10/18/8 9/17/8

v -12 120 -0
vt -8.83671e-32 132
f 11/19/8 12/20/8 10/18/8

v 12 0 -0
vt -24 12
f 13/21/8 12/20/8 11/19/8

v -12 0 -0
vt -8.83671e-32 12
f 13/21/8 14/22/8 12/20/8

v 10.3923 -6 1.77636e-15
vt -22.3923 6
f 15/23/8 14/22/8 13/21/8

v -10.3923 -6 1.77636e-15
vt -1.6077 6
f 15/23/8 16/24/8 14/22/8

v 6 -10.3923 1.77636e-15
vt -18 1.6077
f 17/25/8 16/24/8 15/23/8

v -6 -10.3923 1.77636e-15
vt -6 1.6077
f 17/25/8 18/26/8 16/24/8

v 0 -12 1.77636e-15
vt -12 6.83388e-18
f 18/26/8 17/25/8 19/27/8

vt 16.2499 14.1909
vn 0.49385 -0.85942 0.132327
v 5.19615 -10.3923 3
vt 13.144 14.1909
vn 0.431481 -0.867044 0.249116
vt 14.6969 8.17651
vn -1.98484e-16 -0.984417 0.175849
f 17/28/9 20/29/10 19/30/11

vt 17.3867 17.1847
vn 0.842693 -0.488757 0.225799
vt 13.144 11.0779
vt 16.2499 11.0779
f 15/31/12 20/32/10 17/33/9

v 9 -6 5.19615
vt 12.0072 17.1847
vn 0.749141 -0.501714 0.432517
f 20/32/10 15/31/12 21/34/13

vt 17.8028 16.6476
vn 0.958192 -0.126293 0.256747
vt 12.0072 10.4499
vt 17.3867 10.4499
f 13/35/14 21/36/13 15/37/12

v 10.3923 1.42109e-14 6
vt 11.5911 16.6476
vn 0.8586 -0.130673 0.495713
f 21/36/13 13/35/14 22/38/15

vt 17.8028 12
v 10.3923 120 6
vt 11.5911 132
vn 0.8586 0.130673 0.495713
vt 11.5911 12
f 13/39/14 23/40/16 22/41/15

vt 17.8028 132
vn 0.958192 0.126293 0.256747
f 23/40/16 13/39/14 11/42/17

vt 17.8028 122.759
v 9 126 5.19615
vt 12.0072 128.957
vn 0.749141 0.501714 0.432517
vt 11.5911 122.759
f 11/43/17 24/44/18 23/45/16

vt 17.3867 128.957
vn 0.842693 0.488757 0.225799
f 24/44/18 11/43/17 9/46/19

vt 17.3867 86.388
v 5.19615 130.392 3
vt 13.144 92.4948
vn 0.431481 0.867044 0.249116
vt 12.0072 86.388
f 9/47/19 25/48/20 24/49/18

vt 16.2499 92.4948
vn 0.49385 0.85942 0.132327
f 25/48/20 9/47/19 8/50/21

vt 16.2499 24.3013
vt 14.6969 30.3157
vn -1.03968e-16 0.984417 0.175849
vt 13.144 24.3013
f 8/51/21 5/52/22 25/53/20

vt 18.5235 32.4778
vt 16.9706 38.4922
v 3 130.392 5.19615
vt 15.4176 32.4778
vn 0.249116 0.867044 0.431481
f 25/54/20 5/55/22 26/56/23

vt 16.2499 40.6543
vt 14.6969 46.6687
vt 13.144 40.6543
vn -3.99067e-17 0.867044 0.498231
f 26/57/23 5/58/22 1/59/24

vt 12.0072 98.1783
vt 16.2499 104.285
vt 13.144 104.285
vn -4.35346e-17 0.867044 0.498231
f 3/60/3 26/61/23 1/62/25

v 5.19615 126 9
vt 17.3867 98.1783
vn 0.432517 0.501714 0.749141
f 26/61/23 3/60/3 27/63/26

v 0 120 12
vt 11.5911 127.011
vn -8.68501e-17 0.130673 0.991426
vt 17.3867 133.209
vt 12.0072 133.209
vn -8.83861e-17 0.501714 0.865033
f 28/64/27 27/65/26 3/66/28

v 6 120 10.3923
vt 17.8028 127.011
vn 0.495713 0.130673 0.8586
f 27/65/26 28/64/27 29/67/29

v 0 1.42109e-14 12
vn -1.01325e-16 -0.130673 0.991426
vn -7.23751e-17 0.130673 0.991426
f 30/41/30 29/42/29 28/40/31

v 6 1.42109e-14 10.3923
vn 0.495713 -0.130673 0.8586
f 29/42/29 30/41/30 31/39/32

v 0 -6 10.3923
vt 12.0072 6.1977
vn -1.4731e-16 -0.501714 0.865033
vt 17.8028 12.3954
vt 11.5911 12.3954
f 32/68/33 31/69/32 30/70/30

v 5.19615 -6 9
vt 17.3867 6.1977
vn 0.432517 -0.501714 0.749141
f 31/69/32 32/68/33 33/71/34

v 0 -10.3923 6
vt 13.144 -0.712336
vn -1.3786e-16 -0.867044 0.498231
vt 17.3867 5.39441
vt 12.0072 5.39441
f 34/72/35 33/73/34 32/74/33

v 3 -10.3923 5.19615
vt 16.2499 -0.712336
vn 0.249116 -0.867044 0.431481
f 33/73/34 34/72/35 35/75/36

vt 16.2499 -2.1621
vt 13.144 -2.1621
vt 14.6969 -8.17651
vn -2.07936e-16 -0.984417 0.175849
f 35/76/36 34/77/35 19/78/37

vt 10.0382 -8.14773
vn -1.30604e-16 -0.867044 0.498231
v -3 -10.3923 5.19615
vt 6.93237 -8.14773
vn -0.249116 -0.867044 0.431481
vt 8.48528 -14.1621
vn -2.17387e-16 -0.984417 0.175849
f 34/79/38 36/80/39 19/81/40

vt 11.175 1.07888
vt 6.93237 -5.02786
vt 10.0382 -5.02786
f 32/82/33 36/83/39 34/84/38

v -5.19615 -6 9
vt 5.79555 1.07888
vn -0.432517 -0.501714 0.749141
f 36/83/39 32/82/33 37/85/41

vt 11.5911 10.839
vn -1.158e-16 -0.130673 0.991426
vt 5.79555 4.64129
vt 11.175 4.64129
f 30/86/42 37/87/41 32/88/33

v -6 1.42109e-14 10.3923
vt 5.37945 10.839
vn -0.495713 -0.130673 0.8586
f 37/87/41 30/86/42 38/89/43

vt 5.37945 12
f 28/40/31 38/90/43 30/41/42

v -6 120 10.3923
vt 5.37945 132
vn -0.495713 0.130673 0.8586
f 38/90/43 28/40/31 39/91/44

vt 11.175 134.765
vn -7.36551e-17 0.501714 0.865033
vt 5.37945 128.567
vt 11.5911 128.567
f 3/92/45 39/93/44 28/94/27

vt 5.79555 134.765
f 39/93/44 3/92/45 2/95/2

vt 2.68973 135.335
v -10.3923 120 6
vt -3.10583 129.137
vn -0.8586 0.130673 0.495713
vt 3.10583 129.137
f 2/96/2 40/97/46 39/98/44

v -9 126 5.19615
vt -2.68973 135.335
vn -0.749141 0.501714 0.432517
f 40/97/46 2/96/2 41/99/47

vt 2.68973 104.073
vt -1.55291 110.18
vt -2.68973 104.073
f 2/100/2 6/101/6 41/102/47

vt 1.55291 110.18
f 6/101/6 2/100/2 4/103/4

vt -6.93237 108.601
vt -11.175 102.494
vn -0.842693 0.488757 0.225799
vt -5.79555 102.494
f 6/104/6 10/105/48 41/106/47

vt -10.0382 108.601
f 10/105/48 6/104/6 7/107/7

vt -11.5911 128.567
vn -0.958192 0.126293 0.256747
vt -5.79555 134.765
vt -11.175 134.765
f 12/108/49 41/109/47 10/110/48

vt -5.37945 128.567
f 41/109/47 12/108/49 40/111/46

vt -11.5911 132
v -10.3923 1.42109e-14 6
vt -5.37945 12
vn -0.8586 -0.130673 0.495713
vt -5.37945 132
f 12/112/49 42/113/50 40/114/46

vt -11.5911 12
vn -0.958192 -0.126293 0.256747
f 42/113/50 12/112/49 14/115/51

vt -11.5911 10.839
v -9 -6 5.19615
vt -5.79555 4.64129
vn -0.749141 -0.501714 0.432517
vt -5.37945 10.839
f 14/116/51 43/117/52 42/118/50

vt -11.175 4.64129
vn -0.842693 -0.488757 0.225799
f 43/117/52 14/116/51 16/119/53

vt -10.0382 -5.02786
vn -0.49385 -0.85942 0.132327
vt -5.79555 1.07888
vt -11.175 1.07888
f 18/120/54 43/121/52 16/122/53

v -5.19615 -10.3923 3
vt -6.93237 -5.02786
vn -0.431481 -0.867044 0.249116
f 43/121/52 18/120/54 44/123/55

vt -8.48528 -14.1621
vt -6.93237 -8.14773
vt -10.0382 -8.14773
f 19/124/40 44/125/55 18/126/54

vt -1.96509e-14 -16.353
vt 1.55291 -10.3386
vt -1.55291 -10.3386
f 19/127/40 36/128/39 44/129/55

vt 2.68973 -0.500711
vt -1.55291 -6.60746
vt 1.55291 -6.60746
f 37/130/41 44/131/55 36/132/39

vt -2.68973 -0.500711
f 44/131/55 37/130/41 43/133/52

vt 2.68973 4.07161
vt -3.10583 10.2693
vt -2.68973 4.07161
f 37/134/41 42/135/50 43/136/52

vt 3.10583 10.2693
f 42/135/50 37/134/41 38/137/43

vt 3.10583 12
vt -3.10583 132
vt -3.10583 12
f 38/138/43 40/139/46 42/140/50

vt 3.10583 132
f 40/139/46 38/138/43 39/141/44

vt 18.5235 6.01441
vt 15.4176 6.01441
vt 16.9706 -2.84217e-14
f 20/142/10 35/143/36 19/144/37

vt 18.5235 5.18278
vt 14.2808 11.2895
vt 15.4176 5.18278
f 20/145/10 33/146/34 35/147/36

vt 19.6603 11.2895
f 33/146/34 20/145/10 21/148/13

vt 20.0764 14.5215
vt 14.2808 8.3238
vt 19.6603 8.3238
f 22/149/15 33/150/34 21/151/13

vt 13.8647 14.5215
f 33/150/34 22/149/15 31/152/32

vt 20.0764 132
vt 13.8647 12
vt 20.0764 12
f 23/153/16 31/154/32 22/155/15

vt 13.8647 132
f 31/154/32 23/153/16 29/156/29

vt 19.6603 131.083
vt 13.8647 124.885
vt 20.0764 124.885
f 24/157/18 29/158/29 23/159/16

vt 14.2808 131.083
f 29/158/29 24/157/18 27/160/26

vt 18.5235 98.3899
vt 14.2808 92.2831
vt 19.6603 92.2831
f 25/161/20 27/162/26 24/163/18

vt 15.4176 98.3899
f 27/162/26 25/161/20 26/164/23

